<svg width="28" height="28" viewBox="0 0 28 28" fill="none" xmlns="http://www.w3.org/2000/svg">
<path d="M22.7667 9.16667L21.4 6.13333L18.3333 4.76666L21.4 3.36666L22.7667 0.366665L24.1333 3.36666L27.2 4.76666L24.1333 6.13333L22.7667 9.16667ZM22.7667 27.6L21.4 24.6L18.3333 23.2333L21.4 21.8667L22.7667 18.8L24.1333 21.8667L27.2 23.2333L24.1333 24.6L22.7667 27.6ZM9.63333 22.7667L6.86667 16.7333L0.8 14L6.86667 11.2667L9.63333 5.23333L12.4 11.2667L18.4667 14L12.4 16.7333L9.63333 22.7667ZM9.63333 18.3L11.0333 15.3667L14 14L11.0333 12.6333L9.63333 9.7L8.23333 12.6333L5.26667 14L8.23333 15.3667L9.63333 18.3Z" fill="#636672"/>
</svg>
