<svg width="26" height="18" viewBox="0 0 26 18" fill="none" xmlns="http://www.w3.org/2000/svg">
<path d="M2.56667 15.4333H23.4333C23.5444 15.4333 23.6333 15.4 23.7 15.3333C23.7889 15.2444 23.8333 15.1444 23.8333 15.0333V7.26667H2.16667V15.0333C2.16667 15.1444 2.2 15.2444 2.26667 15.3333C2.35556 15.4 2.45556 15.4333 2.56667 15.4333ZM19.7333 12.9333C20.1778 12.9333 20.5556 12.7889 20.8667 12.5C21.1778 12.1889 21.3333 11.8111 21.3333 11.3667C21.3333 10.9222 21.1778 10.5444 20.8667 10.2333C20.5556 9.92222 20.1778 9.76667 19.7333 9.76667C19.2889 9.76667 18.9111 9.92222 18.6 10.2333C18.3111 10.5444 18.1667 10.9222 18.1667 11.3667C18.1667 11.8111 18.3111 12.1889 18.6 12.5C18.9111 12.7889 19.2889 12.9333 19.7333 12.9333ZM25.6667 5.43333H23.0667L19.9667 2.26667H6.03333L2.93333 5.43333H0.333333L4.63333 1.1C4.83333 0.877776 5.06667 0.711109 5.33333 0.599998C5.62222 0.488888 5.91111 0.433332 6.2 0.433332H19.8C20.0889 0.433332 20.3667 0.488888 20.6333 0.599998C20.9222 0.711109 21.1667 0.877776 21.3667 1.1L25.6667 5.43333ZM2.56667 17.2667C1.96667 17.2667 1.44444 17.0556 1 16.6333C0.555556 16.1889 0.333333 15.6556 0.333333 15.0333V5.43333H25.6667V15.0333C25.6667 15.6556 25.4444 16.1889 25 16.6333C24.5556 17.0556 24.0333 17.2667 23.4333 17.2667H2.56667Z" fill="#636672"/>
</svg>
