<svg width="20" height="25" viewBox="0 0 20 25" fill="none" xmlns="http://www.w3.org/2000/svg">
<path d="M0.625 20.5937V18.8437H2.875V9.375C2.875 7.6875 3.39583 6.19792 4.4375 4.90625C5.47917 3.61458 6.8125 2.79167 8.4375 2.4375V1.6875C8.4375 1.25 8.58333 0.885416 8.875 0.593749C9.1875 0.281249 9.5625 0.124999 10 0.124999C10.4375 0.124999 10.8021 0.281249 11.0938 0.593749C11.4063 0.885416 11.5625 1.25 11.5625 1.6875V2.4375C13.1875 2.79167 14.5208 3.61458 15.5625 4.90625C16.6042 6.19792 17.125 7.6875 17.125 9.375V18.8437H19.375V20.5937H0.625ZM10 24.125C9.375 24.125 8.84375 23.9062 8.40625 23.4687C7.96875 23.0104 7.75 22.4687 7.75 21.8437H12.25C12.25 22.4687 12.0313 23.0104 11.5938 23.4687C11.1563 23.9062 10.625 24.125 10 24.125ZM4.65625 18.8437H15.3438V9.375C15.3438 7.89583 14.8229 6.63542 13.7813 5.59375C12.7396 4.55208 11.4792 4.03125 10 4.03125C8.52083 4.03125 7.26042 4.55208 6.21875 5.59375C5.17708 6.63542 4.65625 7.89583 4.65625 9.375V18.8437Z" fill="#22212A"/>
</svg>
