<svg width="26" height="26" viewBox="0 0 26 26" fill="none" xmlns="http://www.w3.org/2000/svg">
<path d="M13 25.6667C11.2444 25.6667 9.6 25.3333 8.06667 24.6667C6.53333 24 5.18889 23.1 4.03333 21.9667C2.9 20.8111 2 19.4667 1.33333 17.9333C0.666667 16.4 0.333333 14.7556 0.333333 13C0.333333 11.2444 0.666667 9.6 1.33333 8.06667C2 6.51111 2.9 5.16667 4.03333 4.03333C5.18889 2.9 6.53333 2 8.06667 1.33333C9.6 0.666665 11.2444 0.333332 13 0.333332C14.7556 0.333332 16.4 0.666665 17.9333 1.33333C19.4889 2 20.8333 2.9 21.9667 4.03333C23.1 5.16667 24 6.51111 24.6667 8.06667C25.3333 9.6 25.6667 11.2444 25.6667 13C25.6667 13.6222 25.6222 14.2333 25.5333 14.8333C25.4667 15.4111 25.3444 15.9778 25.1667 16.5333C24.9444 16.3111 24.6889 16.1222 24.4 15.9667C24.1333 15.8111 23.8333 15.6889 23.5 15.6C23.6111 15.1778 23.6889 14.7556 23.7333 14.3333C23.8 13.9111 23.8333 13.4667 23.8333 13C23.8333 9.97778 22.7778 7.42222 20.6667 5.33333C18.5778 3.22222 16.0222 2.16667 13 2.16667C9.97778 2.16667 7.41111 3.22222 5.3 5.33333C3.21111 7.42222 2.16667 9.97778 2.16667 13C2.16667 16.0222 3.21111 18.5889 5.3 20.7C7.41111 22.7889 9.97778 23.8333 13 23.8333C14.2 23.8333 15.3444 23.6556 16.4333 23.3C17.5222 22.9222 18.5222 22.4 19.4333 21.7333C19.6111 21.9778 19.8222 22.2 20.0667 22.4C20.3333 22.6 20.6111 22.7667 20.9 22.9C19.8111 23.7667 18.6 24.4444 17.2667 24.9333C15.9333 25.4222 14.5111 25.6667 13 25.6667ZM22.5667 20.6667C22.2111 20.6667 21.9111 20.5444 21.6667 20.3C21.4222 20.0556 21.3 19.7556 21.3 19.4C21.3 19.0444 21.4222 18.7556 21.6667 18.5333C21.9111 18.2889 22.2111 18.1667 22.5667 18.1667C22.9 18.1667 23.1889 18.2889 23.4333 18.5333C23.6778 18.7556 23.8 19.0444 23.8 19.4C23.8 19.7556 23.6778 20.0556 23.4333 20.3C23.1889 20.5444 22.9 20.6667 22.5667 20.6667ZM17.7667 19.0667L12.1 13.3667V6.23333H13.9333V12.6333L19.0667 17.7667L17.7667 19.0667Z" fill="#636672"/>
</svg>
