<svg width="24" height="26" viewBox="0 0 24 26" fill="none" xmlns="http://www.w3.org/2000/svg">
<path d="M2.9 25.3333C2.27778 25.3333 1.74444 25.1222 1.3 24.7C0.877778 24.2556 0.666667 23.7222 0.666667 23.1V4.9C0.666667 4.27778 0.877778 3.75555 1.3 3.33333C1.74444 2.88889 2.27778 2.66667 2.9 2.66667H9.06667C9.22222 2.02222 9.57778 1.48889 10.1333 1.06667C10.6889 0.62222 11.3111 0.399998 12 0.399998C12.7111 0.399998 13.3333 0.62222 13.8667 1.06667C14.4222 1.48889 14.7778 2.02222 14.9333 2.66667H21.1C21.7222 2.66667 22.2444 2.88889 22.6667 3.33333C23.1111 3.75555 23.3333 4.27778 23.3333 4.9V23.1C23.3333 23.7222 23.1111 24.2556 22.6667 24.7C22.2444 25.1222 21.7222 25.3333 21.1 25.3333H2.9ZM2.9 23.5H21.1C21.1889 23.5 21.2778 23.4556 21.3667 23.3667C21.4556 23.2778 21.5 23.1889 21.5 23.1V4.9C21.5 4.81111 21.4556 4.72222 21.3667 4.63333C21.2778 4.54444 21.1889 4.5 21.1 4.5H18.3333V7.73333H5.66667V4.5H2.9C2.81111 4.5 2.72222 4.54444 2.63333 4.63333C2.54444 4.72222 2.5 4.81111 2.5 4.9V23.1C2.5 23.1889 2.54444 23.2778 2.63333 23.3667C2.72222 23.4556 2.81111 23.5 2.9 23.5ZM12 4.66667C12.3333 4.66667 12.6111 4.55555 12.8333 4.33333C13.0778 4.08889 13.2 3.8 13.2 3.46667C13.2 3.11111 13.0778 2.82222 12.8333 2.6C12.6111 2.35555 12.3333 2.23333 12 2.23333C11.6667 2.23333 11.3778 2.35555 11.1333 2.6C10.9111 2.82222 10.8 3.11111 10.8 3.46667C10.8 3.8 10.9111 4.08889 11.1333 4.33333C11.3778 4.55555 11.6667 4.66667 12 4.66667Z" fill="#636672"/>
</svg>
