<svg width="24" height="24" viewBox="0 0 24 24" fill="none" xmlns="http://www.w3.org/2000/svg">
<path d="M2.9 23.3333C2.27778 23.3333 1.74444 23.1222 1.3 22.7C0.877778 22.2556 0.666667 21.7222 0.666667 21.1V2.9C0.666667 2.27778 0.877778 1.75555 1.3 1.33333C1.74444 0.888888 2.27778 0.666666 2.9 0.666666H12V2.5H2.9C2.81111 2.5 2.72222 2.54444 2.63333 2.63333C2.54444 2.72222 2.5 2.81111 2.5 2.9V21.1C2.5 21.1889 2.54444 21.2778 2.63333 21.3667C2.72222 21.4556 2.81111 21.5 2.9 21.5H12V23.3333H2.9ZM17.8667 17.5L16.5667 16.1667L19.8 12.9333H8.13333V11.0667H19.8L16.5333 7.83333L17.8333 6.5L23.3333 12L17.8667 17.5Z" fill="#24EDE7"/>
</svg>
