<svg width="26" height="26" viewBox="0 0 26 26" fill="none" xmlns="http://www.w3.org/2000/svg">
<path d="M10.0667 25.6667L9.53333 21.6333C9.13333 21.5 8.72222 21.3111 8.3 21.0667C7.87778 20.8222 7.5 20.5667 7.16667 20.3L3.43333 21.9L0.5 16.8L3.76667 14.3333C3.74444 14.1111 3.72222 13.8889 3.7 13.6667C3.7 13.4444 3.7 13.2222 3.7 13C3.7 12.8 3.7 12.5889 3.7 12.3667C3.72222 12.1444 3.74444 11.9111 3.76667 11.6667L0.5 9.2L3.43333 4.1L7.16667 5.73333C7.52222 5.44444 7.9 5.18889 8.3 4.96667C8.72222 4.72222 9.12222 4.53333 9.5 4.4L10.0667 0.333332H15.9333L16.4667 4.4C16.9111 4.55555 17.3222 4.74444 17.7 4.96667C18.0778 5.16666 18.4333 5.42222 18.7667 5.73333L22.5667 4.1L25.5 9.2L22.1667 11.7C22.2111 11.9222 22.2333 12.1444 22.2333 12.3667C22.2556 12.5889 22.2667 12.8 22.2667 13C22.2667 13.2 22.2556 13.4111 22.2333 13.6333C22.2333 13.8333 22.2111 14.0556 22.1667 14.3L25.4667 16.8L22.5333 21.9L18.7667 20.2667C18.4111 20.5556 18.0333 20.8222 17.6333 21.0667C17.2556 21.2889 16.8667 21.4667 16.4667 21.6L15.9333 25.6667H10.0667ZM11.6333 23.8333H14.3333L14.8 20.2C15.4889 20.0222 16.1222 19.7667 16.7 19.4333C17.2778 19.1 17.8444 18.6667 18.4 18.1333L21.7667 19.5667L23.0667 17.2667L20.1333 15.0667C20.2222 14.7111 20.2889 14.3667 20.3333 14.0333C20.3778 13.6778 20.4 13.3333 20.4 13C20.4 12.6444 20.3778 12.3 20.3333 11.9667C20.2889 11.6333 20.2222 11.3 20.1333 10.9667L23.1 8.73333L21.7667 6.43333L18.3667 7.86666C17.9222 7.37778 17.3778 6.94444 16.7333 6.56667C16.1111 6.18889 15.4667 5.93333 14.8 5.8L14.3667 2.16667H11.6333L11.2 5.76666C10.5111 5.92222 9.86667 6.17778 9.26667 6.53333C8.68889 6.86667 8.13333 7.3 7.6 7.83333L4.23333 6.43333L2.9 8.73333L5.83333 10.9C5.74445 11.2333 5.66667 11.5778 5.6 11.9333C5.55556 12.2667 5.53333 12.6222 5.53333 13C5.53333 13.3556 5.55556 13.7111 5.6 14.0667C5.66667 14.4 5.74445 14.7333 5.83333 15.0667L2.9 17.2667L4.23333 19.5667L7.56667 18.1333C8.1 18.6667 8.65556 19.1111 9.23333 19.4667C9.83333 19.8 10.4889 20.0556 11.2 20.2333L11.6333 23.8333ZM13 16.9333C14.0889 16.9333 15.0111 16.5556 15.7667 15.8C16.5222 15.0222 16.9 14.0889 16.9 13C16.9 11.9111 16.5222 10.9889 15.7667 10.2333C15.0111 9.45555 14.0889 9.06667 13 9.06667C11.9111 9.06667 10.9778 9.45555 10.2 10.2333C9.44445 10.9889 9.06667 11.9111 9.06667 13C9.06667 14.0889 9.44445 15.0222 10.2 15.8C10.9778 16.5556 11.9111 16.9333 13 16.9333Z" fill="#636672"/>
</svg>
