<svg width="254" height="53" viewBox="0 0 254 53" fill="none" xmlns="http://www.w3.org/2000/svg">
<g clip-path="url(#clip0_331_5409)">
<path d="M85.0217 40.8211L67.0708 26.7174V40.8211H63.9062V22.4326H66.7865L84.7465 36.5363V22.4326H87.9111V40.8211H85.0217Z" fill="white"/>
<path d="M99.3578 40.8212C96.5602 40.8212 94.3037 38.5353 94.3037 35.722V27.5411C94.3037 24.737 96.5694 22.4419 99.3578 22.4419H114.401C117.199 22.4419 119.455 24.737 119.455 27.5411V35.722C119.455 38.5446 117.189 40.8212 114.401 40.8212H99.3578ZM116.291 35.722V27.5411C116.291 26.4768 115.465 25.6347 114.401 25.6347H99.3578C98.2938 25.6347 97.4591 26.4768 97.4591 27.5411V35.722C97.4591 36.7955 98.2846 37.6284 99.3578 37.6284H114.401C115.465 37.6284 116.291 36.7955 116.291 35.722Z" fill="white"/>
<path d="M130.792 40.8212C127.995 40.8212 125.738 38.5353 125.738 35.722V27.5411C125.738 24.737 128.004 22.4419 130.792 22.4419H144.68C147.477 22.4419 149.734 24.737 149.734 27.5411V27.976H146.569V27.5411C146.569 26.4768 145.744 25.6347 144.68 25.6347H130.792C129.728 25.6347 128.903 26.4768 128.903 27.5411V35.722C128.903 36.7955 129.728 37.6284 130.792 37.6284H144.68C145.744 37.6284 146.569 36.7955 146.569 35.722V35.2963H149.734V35.722C149.734 38.5446 147.468 40.8212 144.68 40.8212H130.792Z" fill="white"/>
<path d="M165.255 40.8211V25.6254H154.825V22.4326H178.839V25.6254H168.419V40.8211H165.255Z" fill="white"/>
<path d="M189.672 40.8212C186.875 40.8212 184.618 38.5353 184.618 35.722V22.4419H187.783V35.722C187.783 36.7955 188.608 37.6284 189.681 37.6284H203.569C204.633 37.6284 205.458 36.7955 205.458 35.722V22.4419H208.623V35.722C208.623 38.5446 206.348 40.8212 203.569 40.8212H189.681H189.672Z" fill="white"/>
<path d="M236.957 40.8211L234.636 37.323H219.245L216.933 40.8211H213.117L225.262 22.4326H228.601L240.745 40.8211H236.948H236.957ZM226.94 25.6624L221.345 34.1209H232.527L226.931 25.6624H226.94Z" fill="white"/>
<path d="M15.2266 31.9646L20.7669 39.1367C25.1147 44.7727 21.1338 52.9998 14.0525 52.9998H8.51222C3.81582 52.9998 0 49.1593 0 44.4117V37.2303C0 29.0587 10.2459 25.505 15.2266 31.9553" fill="#4EBBC1"/>
<path d="M53.3484 44.4119V18.842C53.3484 14.1037 49.5418 10.2539 44.8362 10.2539H21.0331C13.9519 10.2539 9.97092 18.4718 14.3188 24.117L34.0491 49.6869C35.6635 51.7784 38.1401 53 40.7635 53H44.8362C49.5326 53 53.3484 49.1594 53.3484 44.4119Z" fill="#4EBBC1"/>
<path d="M249.459 0H242.167C239.654 0 237.617 2.0551 237.617 4.59019V11.9474C237.617 14.4825 239.654 16.5376 242.167 16.5376H249.459C251.972 16.5376 254.009 14.4825 254.009 11.9474V4.59019C254.009 2.0551 251.972 0 249.459 0Z" fill="white"/>
<path d="M241.259 13.2706H239.306L242.865 3.08154H245.121L248.68 13.2706H246.726L244.03 5.16378H243.947L241.25 13.2706H241.259ZM241.324 9.27274H246.653V10.7534H241.324V9.27274Z" fill="#516398"/>
<path d="M250.835 4.53469C250.551 4.53469 250.312 4.44214 250.101 4.2478C249.891 4.05346 249.799 3.8221 249.799 3.55372C249.799 3.28534 249.9 3.05398 250.101 2.85964C250.303 2.6653 250.551 2.57275 250.835 2.57275C251.119 2.57275 251.367 2.6653 251.569 2.85964C251.77 3.05398 251.871 3.28534 251.871 3.55372C251.871 3.8221 251.77 4.05346 251.569 4.23855C251.367 4.42364 251.119 4.52543 250.835 4.52543V4.53469ZM249.946 13.2709V5.61745H251.734V13.2616H249.946V13.2709Z" fill="#516398"/>
</g>
<defs>
<clipPath id="clip0_331_5409">
<rect width="254" height="53" fill="white"/>
</clipPath>
</defs>
</svg>
